/* XPM */
static char * d_rats2_xpm[] = {
"45 54 309 2",
"  	c None",
". 	c #FFFFFF",
"+ 	c #FEFEFE",
"@ 	c #C8C5C1",
"# 	c #F3F3F2",
"$ 	c #B7B0A5",
"% 	c #6D4100",
"& 	c #684410",
"* 	c #BBB3A8",
"= 	c #EAEAE9",
"- 	c #C0B9AC",
"; 	c #B3A68F",
"> 	c #B1A48C",
", 	c #DDDDDC",
"' 	c #937F62",
") 	c #6F4200",
"! 	c #6A4817",
"~ 	c #9C8F7C",
"{ 	c #D5D5D5",
"] 	c #D2D2D2",
"^ 	c #D4D4D4",
"/ 	c #D0D0D0",
"( 	c #DCDCDC",
"_ 	c #FBFBFB",
": 	c #ADA28E",
"< 	c #8C692C",
"[ 	c #9C742C",
"} 	c #8D6828",
"| 	c #96878B",
"1 	c #7F6D52",
"2 	c #AA9F90",
"3 	c #F7F7F7",
"4 	c #EFEFEF",
"5 	c #C7C7C7",
"6 	c #94815E",
"7 	c #9B732C",
"8 	c #815535",
"9 	c #AB858F",
"0 	c #DDDDDD",
"a 	c #BDBDBD",
"b 	c #F8F8F8",
"c 	c #9C9489",
"d 	c #A09381",
"e 	c #90784D",
"f 	c #98712B",
"g 	c #805730",
"h 	c #9C5161",
"i 	c #B2A1A5",
"j 	c #E2E2E2",
"k 	c #E1E1E1",
"l 	c #CFCFCF",
"m 	c #C9C9C9",
"n 	c #D0CECA",
"o 	c #5E3902",
"p 	c #6C4D19",
"q 	c #744F2C",
"r 	c #885A37",
"s 	c #885342",
"t 	c #8E4C56",
"u 	c #9E5366",
"v 	c #AB8F96",
"w 	c #CDCDCD",
"x 	c #75716B",
"y 	c #322109",
"z 	c #EBEBEB",
"A 	c #725428",
"B 	c #533009",
"C 	c #6F3B36",
"D 	c #7F4342",
"E 	c #753F2D",
"F 	c #67461B",
"G 	c #A89E8E",
"H 	c #F6F6F6",
"I 	c #A5A19C",
"J 	c #765B33",
"K 	c #6C4000",
"L 	c #684615",
"M 	c #ADADAD",
"N 	c #0E0E0E",
"O 	c #616161",
"P 	c #FCFCFC",
"Q 	c #775A30",
"R 	c #6C4B1B",
"S 	c #BEB7AD",
"T 	c #BCA5A5",
"U 	c #905F4E",
"V 	c #693E02",
"W 	c #674412",
"X 	c #5F5F5F",
"Y 	c #060606",
"Z 	c #1E1E1E",
"` 	c #F2F2F2",
" .	c #64400C",
"..	c #5F3800",
"+.	c #613A00",
"@.	c #6A3F00",
"#.	c #877458",
"$.	c #E6E5E5",
"%.	c #B88C8B",
"&.	c #E49897",
"*.	c #E59998",
"=.	c #A97065",
"-.	c #693F02",
";.	c #D5D4D1",
">.	c #606060",
",.	c #AAAAAA",
"'.	c #CAC7C2",
").	c #593500",
"!.	c #462900",
"~.	c #633B00",
"{.	c #745931",
"].	c #E9E9E8",
"^.	c #DFDBDB",
"/.	c #BF8887",
"(.	c #976353",
"_.	c #6E4100",
":.	c #9C8D78",
"<.	c #938167",
"[.	c #5B3600",
"}.	c #6E4F21",
"|.	c #EBEAEA",
"1.	c #D6D6D6",
"2.	c #C68C8B",
"3.	c #71471F",
"4.	c #68430D",
"5.	c #DFDEDB",
"6.	c #E0DFDD",
"7.	c #664007",
"8.	c #5A3600",
"9.	c #785D36",
"0.	c #F4F4F4",
"a.	c #E6E6E6",
"b.	c #DAD8D8",
"c.	c #C38A89",
"d.	c #D28C8B",
"e.	c #BF7F7F",
"f.	c #BD7E7D",
"g.	c #C28281",
"h.	c #BB7D7C",
"i.	c #805446",
"j.	c #623A00",
"k.	c #735426",
"l.	c #DEDCDA",
"m.	c #DDDCD9",
"n.	c #705225",
"o.	c #553300",
"p.	c #918068",
"q.	c #F9F9F9",
"r.	c #D9D9D9",
"s.	c #D8D8D8",
"t.	c #AE8180",
"u.	c #CA8786",
"v.	c #D08B8A",
"w.	c #AE736B",
"x.	c #663D00",
"y.	c #543508",
"z.	c #96856B",
"A.	c #C8C5BF",
"B.	c #E8E8E8",
"C.	c #E7E7E7",
"D.	c #98876D",
"E.	c #684108",
"F.	c #583400",
"G.	c #693F00",
"H.	c #6A4002",
"I.	c #CCC8C3",
"J.	c #CCCCCC",
"K.	c #DBDBDB",
"L.	c #A48B8A",
"M.	c #D7908F",
"N.	c #C18180",
"O.	c #AE7366",
"P.	c #5C3700",
"Q.	c #653C00",
"R.	c #673D00",
"S.	c #806846",
"T.	c #BBB7B7",
"U.	c #D38E8D",
"V.	c #996665",
"W.	c #604040",
"X.	c #704B4A",
"Y.	c #CE8989",
"Z.	c #BE7F7E",
"`.	c #B67979",
" +	c #E29796",
".+	c #9A644F",
"++	c #6B3F00",
"@+	c #663D01",
"#+	c #E5E5E5",
"$+	c #F3F3F3",
"%+	c #CECECE",
"&+	c #DAD3D3",
"*+	c #BF9493",
"=+	c #D38D8C",
"-+	c #DA9291",
";+	c #A8706F",
">+	c #8E5F5E",
",+	c #A06B6A",
"'+	c #E09695",
")+	c #BC7E7D",
"!+	c #654022",
"~+	c #623D06",
"{+	c #674209",
"]+	c #633D03",
"^+	c #BBB4AA",
"/+	c #E1DFDF",
"(+	c #C4AEAE",
"_+	c #BF8F8F",
":+	c #B47878",
"<+	c #CF8A89",
"[+	c #653D02",
"}+	c #603900",
"|+	c #683E01",
"1+	c #694004",
"2+	c #69460F",
"3+	c #876425",
"4+	c #9A732C",
"5+	c #79571E",
"6+	c #643E05",
"7+	c #AA9D8A",
"8+	c #CDC1C1",
"9+	c #C8B0B0",
"0+	c #B79F9F",
"a+	c #E1BBBA",
"b+	c #C6A79E",
"c+	c #AC936D",
"d+	c #AB926C",
"e+	c #A28C6D",
"f+	c #BAA98E",
"g+	c #C6B499",
"h+	c #CBBBA3",
"i+	c #D8CFC1",
"j+	c #DFDFDD",
"k+	c #694D38",
"l+	c #62361C",
"m+	c #5B3601",
"n+	c #6E4E17",
"o+	c #8E6927",
"p+	c #633E06",
"q+	c #A79A86",
"r+	c #AE6F7F",
"s+	c #773C4B",
"t+	c #7F4652",
"u+	c #895A47",
"v+	c #663E0D",
"w+	c #65430E",
"x+	c #896525",
"y+	c #B0AAA0",
"z+	c #D6BFC5",
"A+	c #7B4F5A",
"B+	c #D89190",
"C+	c #AE746F",
"D+	c #693E00",
"E+	c #846124",
"F+	c #966F2A",
"G+	c #D9D8D6",
"H+	c #F6DDDD",
"I+	c #E8A4A3",
"J+	c #B97B7B",
"K+	c #644008",
"L+	c #8E7342",
"M+	c #FEFBFB",
"N+	c #EFDEDE",
"O+	c #B49F80",
"P+	c #5E3610",
"Q+	c #5E3801",
"R+	c #623A01",
"S+	c #6E4B11",
"T+	c #B1A590",
"U+	c #AF9899",
"V+	c #914A5C",
"W+	c #7E434E",
"X+	c #936354",
"Y+	c #825D37",
"Z+	c #8B6A2E",
"`+	c #F2EDEE",
" @	c #A67E88",
".@	c #AE596F",
"+@	c #A76C6E",
"@@	c #DF9594",
"#@	c #835D37",
"$@	c #A99D88",
"%@	c #E8D6DA",
"&@	c #C99897",
"*@	c #C28280",
"=@	c #8E6928",
"-@	c #8A7348",
";@	c #F9F7F7",
">@	c #D9B6B6",
",@	c #E19E9D",
"'@	c #B2837A",
")@	c #815A2E",
"!@	c #8E4F5D",
"~@	c #D9D4D5",
"{@	c #F4F2F2",
"]@	c #D8C9AC",
"^@	c #A37E3B",
"/@	c #936E2B",
"(@	c #9B8B6D",
"_@	c #936A74",
":@	c #AB576D",
"<@	c #8A5361",
"[@	c #EAE8E9",
"}@	c #ECE8E0",
"|@	c #D5D3CF",
"1@	c #FDFDFD",
"2@	c #A49196",
"3@	c #924A5D",
"4@	c #A07983",
". . . . . . . . . . . . . . . . . . . . . . . . . . . . . . . . . . . . . . . . . . . . . ",
". . . . . . . . . . . . . . . . . . . . . . . . . . . . . . . . . . . . . . . . . . . . . ",
". . . . . . . . . . . . . . . . . . . . . . . . . . . . . . . . . . . . . . . . . . . . . ",
". . . . . . . . . . . . . . . . . . . . . . . . . . . . . . . . . . . . . . . . . . . . . ",
". . . . . . . . . . . . . . . . . . . . . . . . . . . . . . . . . . . . . . . . . . . . . ",
". . . . . . . . . . . . . . . . . . . . . . . . . . . . . . . . . . . . . . . . . . . . . ",
". . . . . . . . . . . . . . . . . . . . . . . . . . . . . . . . . . . . . . . . . . . . . ",
". . . . . . . . . . . . . . . . . . . . . . . . . . . . . . . . . . . . . . . . . . . . . ",
". . . . . . . . . . . . . . . . . . . . . . . . . . . . . . . . . . . . . . . . . . . . . ",
". . . . . . . . . . . . . . . . . . . . . . . . . . . . . . . . . . . . . . . . . . . . . ",
". . . . . . . . . . . . . . . . . . . . . . . . . . . . . . . . . . . . . . . . . . . . . ",
". . . . . . . . . . . . . . . . . . . . . . . . . . . . . . . . . . . . . . . . . . . . . ",
". . . . . . . . . . . . . . . . . + @ # . . . . . . . . . . . . . . . . . . . . . . . . . ",
". . . . . . . . . . . . . . . . . $ % & * . . . . . . . . . . . = - ; > , . . . . . . . . ",
". . . . . . . . . . . . . . . . . ' ) ! ~ { ] ^ / ( . . . . _ : < [ [ } | . . . . . . . . ",
". . . . . . . . . . . . . . . . . 1 2 3 . . . . . 4 5 . . # 6 7 [ [ [ 8 9 . . . . . . . . ",
". . . . . . . . . . . . . 0 / ^ a { . . . . . . . . b c d e [ [ [ f g h i . . . . . . . . ",
". . . . . . . . . . . . j k 4 l m . . . . . . . . . . n o p q r s t u v _ . . . . . . . . ",
". . . . . . . . . . . . w + x y z . . . . . . _ . . . . A % B C D E F G H . . . . . . . . ",
". . . . . . . . . . . . I J K L . . . . . . M N O P . . Q ) ) ) ) ) ) ) R S . . . . . . . ",
". . . . . . . . . . b T U V ) W + . . . . . X Y Z ` . P  .) ..+.) ) ) ) ) @.#.` . . . . . ",
". . . . . . . . . $.%.&.*.=.-.@.;.. . . . . ] >.,.. . '.% ).!.~.) ) ) ) ) ) ) {.].. . . . ",
". . . . . . . . ^./.*.*.*.*.(._.:.. . . . . . . . . . <.) [.K ) ) ) ) ) ) ) ) ) }.|.. . . ",
"1.{ z . . . . ^.2.*.*.*.*.*.&.3.4.5.. . . . . . . . 6.7.% 8.) ) ) ) ) ) ) ) ) ) ) 9.0.. . ",
". . a.] ] ] b.c.*.d.e.f.g.f.h.i.j.k.l.. . . . . . m.n.) o.) ) ) ) ) ) ) ) ) ) ) ) ) p.. . ",
". q.r.s.0.3 t.*.u.v.*.*.*.*.*.w.x.).y.z.A.B.C.'.D.E.) F.G.) ) ) ) ) ) ) ) ) ) ) ) ) H.I.. ",
"J.1.b _ K.L.*.*.*.M.N.&.*.*.*.O.) ) K P.P.Q.R._.) % F.@.) ) ) ) ) ) ) ) ) ) ) ) ) ) ) S.. ",
". . . K.T.U.*.V.W.X.Y.Z.`.f. +.+) ) ) ) ++Q.) ) ) ) ) ) ) ) ) ) ) ) ) ) ) ) ) ) ) ) ) @+#+",
"$+%+J.$+&+*+=+-+;+>+,+&.*.'+)+!+K ) ) ) ) ) ) ) ) ) ) ) ) ) ) ) ) ) ) ) ) R.~+{+]+% ) ) ^+",
"1.. . . . . /+(+_+=+ +:+<+*.d.[+[.}+) ) ) ) |+1+) ) ) ) ) ) ) ) ) ) ) ++2+3+[ [ 4+5+6+) 7+",
". . . . . . . . . a.8+9+0+a+b+c+d+e+f+g+h+i+j+k+l+m+) ) ) ) ) ) ) ) K n+[ [ [ [ [ [ o+p+q+",
". . . . . . . . . . . . . . . . . . . . . . . r+s+t+u+v+) ) ) ) ) ) w+[ [ [ [ [ [ [ [ x+y+",
". . . . . . . . . . . . . . . . . . . . . . . z+A+B+*.C+K ) ) ) ) D+E+[ [ [ [ [ [ [ [ F+G+",
". . . . . . . . . . . . . . . . . . . . . . . . + H+I+J+R.) ) ) ) K+[ [ [ [ [ [ [ [ [ L++ ",
"+ . . . . . . . . . . . . . . . . . . . . . . . . . M+N+O+|+P+Q+R+S+[ [ [ [ [ [ [ [ [ T+. ",
". . . . . . . . . . . . + . . . . . . . . . . . . . . . . U+V+V+W+X+Y+[ [ [ [ [ [ [ Z+|.. ",
". . . . . . . . . . . . . . . . . . . . . . . . . . . . . `+ @.@+@*.@@#@[ [ [ [ [ [ $@. . ",
". . . . . . . . . . . . . . . . . . . . . . . . . . . . . . . %@&@*.*.*@=@[ [ [ [ -@3 . . ",
". . . . . . . . . . . . . . . . . . . . . . . . . . . . . . . . ;@>@,@'@f [ [ [ )@!@~@. . ",
". . . . . . . . . . . . . . . . . . . . . . . . . . . . . . . . . . {@+ ]@^@/@(@_@:@<@[@. ",
". . . . . . . . . . . . . . . . . . . . . . . . . . . . . . . . . . . . . }@|@. 1@2@3@4@. ",
". . . . . . . . . . . . . . . . . . . . . . . . . . . . . . . . . . . . . . . . . . . . . ",
". . . . . . . . . . . . . . . . . . . . . . . . . . . . . . . . . . . . . . . . . . . . . ",
". . . . . . . . . . . . . . . . . . . . . . . . . . . . . . . . . . . . . . . . . . . . . ",
". . . . . . . . . . . . . . . . . . . . . . . . . . . . . . . . . . . . . . . . . . . . . ",
". . . . . . . . . . . . . . . . . . . . . . . . . . . . . . . . . . . . . . . . . . . . . ",
". . . . . . . . . . . . . . . . . . . . . . . . . . . . . . . . . . . . . . . . . . . . . ",
". . . . . . . . . . . . . . . . . . . . . . . . . . . . . . . . . . . . . . . . . . . . . ",
". . . . . . . . . . . . . . . . . . . . . . . . . . . . . . . . . . . . . . . . . . . . . ",
". . . . . . . . . . . . . . . . . . . . . . . . . . . . . . . . . . . . . . . . . . . . . ",
". . . . . . . . . . . . . . . . . . . . . . . . . . . . . . . . . . . . . . . . . . . . . ",
". . . . . . . . . . . . . . . . . . . . . . . . . . . . . . . . . . . . . . . . . . . . . ",
". . . . . . . . . . . . . . . . . . . . . . . . . . . . . . . . . . . . . . . . . . . . . ",
". . . . . . . . . . . . . . . . . . . . . . . . . . . . . . . . . . . . . . . . . . . . . "};
